{
  "accessors": [
    {
      "bufferView": 0,
      "componentType": 5126,
      "count": 4,
      "max": [
        0.6434047818183899,
        0.08541008085012436,
        0.24192984402179718
      ],
      "min": [
        -0.6434100270271301,
        -0.08540999889373779,
        -0.24192999303340912
      ],
      "type": "VEC3"
    },
    {
      "bufferView": 1,
      "componentType": 5121,
      "count": 4,
      "type": "SCALAR"
    },
    {
      "bufferView": 2,
      "componentType": 5126,
      "count": 4,
      "type": "VEC3"
    },
    {
      "bufferView": 3,
      "componentType": 5126,
      "count": 4,
      "type": "VEC4"
    },
    {
      "bufferView": 4,
      "componentType": 5126,
      "count": 4,
      "type": "VEC2"
    },
    {
      "bufferView": 5,
      "componentType": 5126,
      "count": 178,
      "max": [
        1.0000542402267456,
        1.0001380443572998,
        0.017166288569569588
      ],
      "min": [
        -1.0000100135803223,
        -1.0000100135803223,
        -0.017170099541544914
      ],
      "type": "VEC3"
    },
    {
      "bufferView": 6,
      "componentType": 5125,
      "count": 302,
      "type": "SCALAR"
    },
    {
      "bufferView": 7,
      "componentType": 5126,
      "count": 178,
      "type": "VEC3"
    },
    {
      "bufferView": 8,
      "componentType": 5126,
      "count": 152,
      "max": [
        0.6573192477226257,
        0.21747590601444244,
        0.009314386174082756
      ],
      "min": [
        -0.6689299941062927,
        -0.9772433638572693,
        -0.009075616486370564
      ],
      "type": "VEC3"
    },
    {
      "bufferView": 9,
      "componentType": 5125,
      "count": 225,
      "type": "SCALAR"
    },
    {
      "bufferView": 10,
      "componentType": 5126,
      "count": 152,
      "type": "VEC3"
    },
    {
      "bufferView": 11,
      "componentType": 5126,
      "count": 294,
      "max": [
        0.7247695326805115,
        0.09546846151351929,
        1.7146093845367432
      ],
      "min": [
        -0.026590000838041306,
        -2.8730499744415283,
        -0.300570011138916
      ],
      "type": "VEC3"
    },
    {
      "bufferView": 12,
      "componentType": 5125,
      "count": 677,
      "type": "SCALAR"
    },
    {
      "bufferView": 13,
      "componentType": 5126,
      "count": 294,
      "type": "VEC3"
    },
    {
      "bufferView": 14,
      "componentType": 5126,
      "count": 150,
      "max": [
        0.18887948989868164,
        0.09458966553211212,
        1.4513497352600098
      ],
      "min": [
        -0.9742299914360046,
        -0.683430016040802,
        0.5011199712753296
      ],
      "type": "VEC3"
    },
    {
      "bufferView": 15,
      "componentType": 5125,
      "count": 341,
      "type": "SCALAR"
    },
    {
      "bufferView": 16,
      "componentType": 5126,
      "count": 150,
      "type": "VEC3"
    },
    {
      "bufferView": 17,
      "componentType": 5126,
      "count": 150,
      "max": [
        0.7108898162841797,
        -0.04890986531972885,
        1.391890048980713
      ],
      "min": [
        -0.9700800180435181,
        -0.6836599707603455,
        0.2861599922180176
      ],
      "type": "VEC3"
    },
    {
      "bufferView": 18,
      "componentType": 5125,
      "count": 341,
      "type": "SCALAR"
    },
    {
      "bufferView": 19,
      "componentType": 5126,
      "count": 150,
      "type": "VEC3"
    },
    {
      "bufferView": 20,
      "componentType": 5126,
      "count": 294,
      "max": [
        0.7551797032356262,
        0.480159729719162,
        2.784450054168701
      ],
      "min": [
        -1.0,
        -0.5745999813079834,
        -0.21462999284267426
      ],
      "type": "VEC3"
    },
    {
      "bufferView": 21,
      "componentType": 5125,
      "count": 677,
      "type": "SCALAR"
    },
    {
      "bufferView": 22,
      "componentType": 5126,
      "count": 294,
      "type": "VEC3"
    },
    {
      "bufferView": 23,
      "componentType": 5126,
      "count": 294,
      "max": [
        0.7401894927024841,
        0.7708596587181091,
        2.073383092880249
      ],
      "min": [
        -1.0,
        -0.49147000908851624,
        -0.1179099977016449
      ],
      "type": "VEC3"
    },
    {
      "bufferView": 24,
      "componentType": 5125,
      "count": 677,
      "type": "SCALAR"
    },
    {
      "bufferView": 25,
      "componentType": 5126,
      "count": 294,
      "type": "VEC3"
    },
    {
      "bufferView": 26,
      "componentType": 5126,
      "count": 77,
      "max": [
        3.5564146041870117,
        0.742540180683136,
        3.8040056228637695
      ],
      "min": [
        0.08676999807357788,
        0.2618800103664398,
        0.5477200150489807
      ],
      "type": "VEC3"
    },
    {
      "bufferView": 27,
      "componentType": 5125,
      "count": 216,
      "type": "SCALAR"
    },
    {
      "bufferView": 28,
      "componentType": 5126,
      "count": 77,
      "type": "VEC3"
    },
    {
      "bufferView": 29,
      "componentType": 5126,
      "count": 77,
      "type": "VEC4"
    },
    {
      "bufferView": 30,
      "componentType": 5126,
      "count": 77,
      "type": "VEC2"
    },
    {
      "bufferView": 31,
      "componentType": 5126,
      "count": 7037,
      "max": [
        4.770841121673584,
        3.585540533065796,
        3.9800851345062256
      ],
      "min": [
        -2.478529930114746,
        -4.111690044403076,
        -1.6845099925994873
      ],
      "type": "VEC3"
    },
    {
      "bufferView": 32,
      "componentType": 5125,
      "count": 10948,
      "type": "SCALAR"
    },
    {
      "bufferView": 33,
      "componentType": 5126,
      "count": 7037,
      "type": "VEC3"
    },
    {
      "bufferView": 34,
      "componentType": 5126,
      "count": 7037,
      "type": "VEC4"
    },
    {
      "bufferView": 35,
      "componentType": 5126,
      "count": 7037,
      "type": "VEC2"
    }
  ],
  "asset": {
    "version": "2.0"
  },
  "bufferViews": [
    {
      "buffer": 0,
      "byteLength": 48,
      "target": 34962
    },
    {
      "buffer": 1,
      "byteLength": 4,
      "target": 34963
    },
    {
      "buffer": 2,
      "byteLength": 48,
      "target": 34962
    },
    {
      "buffer": 3,
      "byteLength": 64,
      "target": 34962
    },
    {
      "buffer": 4,
      "byteLength": 32,
      "target": 34962
    },
    {
      "buffer": 5,
      "byteLength": 2136,
      "target": 34962
    },
    {
      "buffer": 6,
      "byteLength": 1208,
      "target": 34963
    },
    {
      "buffer": 7,
      "byteLength": 2136,
      "target": 34962
    },
    {
      "buffer": 8,
      "byteLength": 1824,
      "target": 34962
    },
    {
      "buffer": 9,
      "byteLength": 900,
      "target": 34963
    },
    {
      "buffer": 10,
      "byteLength": 1824,
      "target": 34962
    },
    {
      "buffer": 11,
      "byteLength": 3528,
      "target": 34962
    },
    {
      "buffer": 12,
      "byteLength": 2708,
      "target": 34963
    },
    {
      "buffer": 13,
      "byteLength": 3528,
      "target": 34962
    },
    {
      "buffer": 14,
      "byteLength": 1800,
      "target": 34962
    },
    {
      "buffer": 15,
      "byteLength": 1364,
      "target": 34963
    },
    {
      "buffer": 16,
      "byteLength": 1800,
      "target": 34962
    },
    {
      "buffer": 17,
      "byteLength": 1800,
      "target": 34962
    },
    {
      "buffer": 18,
      "byteLength": 1364,
      "target": 34963
    },
    {
      "buffer": 19,
      "byteLength": 1800,
      "target": 34962
    },
    {
      "buffer": 20,
      "byteLength": 3528,
      "target": 34962
    },
    {
      "buffer": 21,
      "byteLength": 2708,
      "target": 34963
    },
    {
      "buffer": 22,
      "byteLength": 3528,
      "target": 34962
    },
    {
      "buffer": 23,
      "byteLength": 3528,
      "target": 34962
    },
    {
      "buffer": 24,
      "byteLength": 2708,
      "target": 34963
    },
    {
      "buffer": 25,
      "byteLength": 3528,
      "target": 34962
    },
    {
      "buffer": 26,
      "byteLength": 924,
      "target": 34962
    },
    {
      "buffer": 27,
      "byteLength": 864,
      "target": 34963
    },
    {
      "buffer": 28,
      "byteLength": 924,
      "target": 34962
    },
    {
      "buffer": 29,
      "byteLength": 1232,
      "target": 34962
    },
    {
      "buffer": 30,
      "byteLength": 616,
      "target": 34962
    },
    {
      "buffer": 31,
      "byteLength": 84444,
      "target": 34962
    },
    {
      "buffer": 32,
      "byteLength": 43792,
      "target": 34963
    },
    {
      "buffer": 33,
      "byteLength": 84444,
      "target": 34962
    },
    {
      "buffer": 34,
      "byteLength": 112592,
      "target": 34962
    },
    {
      "buffer": 35,
      "byteLength": 56296,
      "target": 34962
    }
  ],
  "buffers": [
    {
      "byteLength": 48,
      "uri": "data:application/octet-stream;base64,"
    },
    {
      "byteLength": 4,
      "uri": "data:application/octet-stream;base64,"
    },
    {
      "byteLength": 48,
      "uri": "data:application/octet-stream;base64,"
    },
    {
      "byteLength": 64,
      "uri": "data:application/octet-stream;base64,"
    },
    {
      "byteLength": 32,
      "uri": "data:application/octet-stream;base64,"
    },
    {
      "byteLength": 2136,
      "uri": "data:application/octet-stream;base64,"
    },
    {
      "byteLength": 1208,
      "uri": "data:application/octet-stream;base64,"
    },
    {
      "byteLength": 2136,
      "uri": "data:application/octet-stream;base64,"
    },
    {
      "byteLength": 1824,
      "uri": "data:application/octet-stream;base64,"
    },
    {
      "byteLength": 900,
      "uri": "data:application/octet-stream;base64,"
    },
    {
      "byteLength": 1824,
      "uri": "data:application/octet-stream;base64,"
    },
    {
      "byteLength": 3528,
      "uri": "data:application/octet-stream;base64,"
    },
    {
      "byteLength": 2708,
      "uri": "data:application/octet-stream;base64,"
    },
    {
      "byteLength": 3528,
      "uri": "data:application/octet-stream;base64,"
    },
    {
      "byteLength": 1800,
      "uri": "data:application/octet-stream;base64,"
    },
    {
      "byteLength": 1364,
      "uri": "data:application/octet-stream;base64,"
    },
    {
      "byteLength": 1800,
      "uri": "data:application/octet-stream;base64,"
    },
    {
      "byteLength": 1800,
      "uri": "data:application/octet-stream;base64,"
    },
    {
      "byteLength": 1364,
      "uri": "data:application/octet-stream;base64,"
    },
    {
      "byteLength": 1800,
      "uri": "data:application/octet-stream;base64,"
    },
    {
      "byteLength": 3528,
      "uri": "data:application/octet-stream;base64,"
    },
    {
      "byteLength": 2708,
      "uri": "data:application/octet-stream;base64,"
    },
    {
      "byteLength": 3528,
      "uri": "data:application/octet-stream;base64,"
    },
    {
      "byteLength": 3528,
      "uri": "data:application/octet-stream;base64,"
    },
    {
      "byteLength": 2708,
      "uri": "data:application/octet-stream;base64,"
    },
    {
      "byteLength": 3528,
      "uri": "data:application/octet-stream;base64,"
    },
    {
      "byteLength": 924,
      "uri": "data:application/octet-stream;base64,"
    },
    {
      "byteLength": 864,
      "uri": "data:application/octet-stream;base64,"
    },
    {
      "byteLength": 924,
      "uri": "data:application/octet-stream;base64,"
    },
    {
      "byteLength": 1232,
      "uri": "data:application/octet-stream;base64,"
    },
    {
      "byteLength": 616,
      "uri": "data:application/octet-stream;base64,"
    },
    {
      "byteLength": 84444,
      "uri": "data:application/octet-stream;base64,"
    },
    {
      "byteLength": 43792,
      "uri": "data:application/octet-stream;base64,"
    },
    {
      "byteLength": 84444,
      "uri": "data:application/octet-stream;base64,"
    },
    {
      "byteLength": 112592,
      "uri": "data:application/octet-stream;base64,"
    },
    {
      "byteLength": 56296,
      "uri": "data:application/octet-stream;base64,"
    }
  ],
  "materials": [
    {
      "doubleSided": true,
      "name": "Material.018",
      "pbrMetallicRoughness": {
        "baseColorFactor": [
          0.6399999856948853,
          0.6399999856948853,
          0.6399999856948853,
          1.0
        ]
      }
    },
    {
      "doubleSided": true,
      "name": "Material.014",
      "pbrMetallicRoughness": {
        "baseColorFactor": [
          0.005489999894052744,
          0.006459999829530716,
          0.006339999847114086,
          1.0
        ]
      }
    },
    {
      "doubleSided": true,
      "name": "Material.015",
      "pbrMetallicRoughness": {
        "baseColorFactor": [
          0.02645999938249588,
          0.03756999969482422,
          0.03198999911546707,
          1.0
        ]
      }
    },
    {
      "doubleSided": true,
      "name": "Material.011",
      "pbrMetallicRoughness": {
        "baseColorFactor": [
          0.12185999751091003,
          0.12185999751091003,
          0.12185999751091003,
          1.0
        ]
      }
    },
    {
      "doubleSided": true,
      "name": "Material.010",
      "pbrMetallicRoughness": {
        "baseColorFactor": [
          0.632610023021698,
          0.6399999856948853,
          0.5180299878120422,
          1.0
        ]
      }
    },
    {
      "doubleSided": true,
      "name": "Material.026",
      "pbrMetallicRoughness": {
        "baseColorFactor": [
          0.07298000156879425,
          0.10628999769687653,
          0.09784000366926193,
          1.0
        ]
      }
    }
  ],
  "meshes": [
    {
      "name": "Cube.002_0",
      "primitives": [
        {
          "attributes": {
            "NORMAL": 2,
            "POSITION": 0,
            "TANGENT": 3,
            "TEXCOORD_0": 4
          },
          "indices": 1,
          "material": 0,
          "mode": 5
        }
      ]
    },
    {
      "name": "Cube_0",
      "primitives": [
        {
          "attributes": {
            "NORMAL": 7,
            "POSITION": 5
          },
          "indices": 6,
          "mode": 5
        }
      ]
    },
    {
      "name": "Cube_1",
      "primitives": [
        {
          "attributes": {
            "NORMAL": 10,
            "POSITION": 8
          },
          "indices": 9,
          "mode": 5
        }
      ]
    },
    {
      "name": "BezierCurve.004_0",
      "primitives": [
        {
          "attributes": {
            "NORMAL": 13,
            "POSITION": 11
          },
          "indices": 12,
          "mode": 5
        }
      ]
    },
    {
      "name": "BezierCurve.003_0",
      "primitives": [
        {
          "attributes": {
            "NORMAL": 16,
            "POSITION": 14
          },
          "indices": 15,
          "mode": 5
        }
      ]
    },
    {
      "name": "BezierCurve.002_0",
      "primitives": [
        {
          "attributes": {
            "NORMAL": 19,
            "POSITION": 17
          },
          "indices": 18,
          "mode": 5
        }
      ]
    },
    {
      "name": "BezierCurve.001_0",
      "primitives": [
        {
          "attributes": {
            "NORMAL": 22,
            "POSITION": 20
          },
          "indices": 21,
          "mode": 5
        }
      ]
    },
    {
      "name": "BezierCurve_0",
      "primitives": [
        {
          "attributes": {
            "NORMAL": 25,
            "POSITION": 23
          },
          "indices": 24,
          "mode": 5
        }
      ]
    },
    {
      "name": "Cube.003_0",
      "primitives": [
        {
          "attributes": {
            "NORMAL": 28,
            "POSITION": 26,
            "TANGENT": 29,
            "TEXCOORD_0": 30
          },
          "indices": 27,
          "material": 5,
          "mode": 5
        }
      ]
    },
    {
      "name": "Cube.003_1",
      "primitives": [
        {
          "attributes": {
            "NORMAL": 33,
            "POSITION": 31,
            "TANGENT": 34,
            "TEXCOORD_0": 35
          },
          "indices": 32,
          "material": 0,
          "mode": 5
        }
      ]
    }
  ],
  "nodes": [
    {
      "mesh": 0,
      "name": "Cube.002_0"
    },
    {
      "children": [
        0
      ],
      "name": "Cube.002",
      "rotation": [
        0.0,
        -0.7071067811865475,
        0.7071067811865476,
        0.0
      ],
      "scale": [
        0.5510900020599365,
        0.5510900020599365,
        0.5510900020599365
      ],
      "translation": [
        2.100909948348999,
        -0.8569300174713135,
        0.6876599788665771
      ]
    },
    {
      "mesh": 1,
      "name": "Cube_0"
    },
    {
      "mesh": 2,
      "name": "Cube_1"
    },
    {
      "children": [
        2,
        3
      ],
      "name": "Cube",
      "rotation": [
        0.0,
        0.0,
        0.17123751549512486,
        0.9852297768982913
      ],
      "scale": [
        0.4039812982082367,
        0.4039812982082367,
        0.40397998690605164
      ],
      "translation": [
        2.322849988937378,
        0.3640199899673462,
        2.0563299655914307
      ]
    },
    {
      "mesh": 3,
      "name": "BezierCurve.004_0"
    },
    {
      "children": [
        5
      ],
      "name": "BezierCurve.004",
      "rotation": [
        0.0,
        0.7071067811865475,
        0.0,
        0.7071067811865476
      ],
      "scale": [
        1.0,
        1.0,
        1.0
      ],
      "translation": [
        -1.2165900468826294,
        1.5639499425888062,
        0.7514500021934509
      ]
    },
    {
      "mesh": 4,
      "name": "BezierCurve.003_0"
    },
    {
      "children": [
        7
      ],
      "name": "BezierCurve.003",
      "rotation": [
        0.0,
        0.7071067811865475,
        0.0,
        0.7071067811865476
      ],
      "scale": [
        1.0,
        1.0,
        1.0
      ],
      "translation": [
        0.8452000021934509,
        1.6674699783325195,
        0.252920001745224
      ]
    },
    {
      "mesh": 5,
      "name": "BezierCurve.002_0"
    },
    {
      "children": [
        9
      ],
      "name": "BezierCurve.002",
      "rotation": [
        0.0,
        0.7071067811865475,
        0.0,
        0.7071067811865476
      ],
      "scale": [
        1.0,
        1.0,
        1.0
      ],
      "translation": [
        0.8452000021934509,
        1.6674699783325195,
        0.7514500021934509
      ]
    },
    {
      "mesh": 6,
      "name": "BezierCurve.001_0"
    },
    {
      "children": [
        11
      ],
      "name": "BezierCurve.001",
      "rotation": [
        0.0,
        0.7071067811865475,
        0.0,
        0.7071067811865476
      ],
      "scale": [
        1.0,
        1.0,
        1.0
      ],
      "translation": [
        0.6570299863815308,
        1.667580008506775,
        0.7514500021934509
      ]
    },
    {
      "mesh": 7,
      "name": "BezierCurve_0"
    },
    {
      "children": [
        13
      ],
      "name": "BezierCurve",
      "rotation": [
        0.0,
        0.7071067811865475,
        0.0,
        0.7071067811865476
      ],
      "scale": [
        1.0,
        1.0,
        1.0
      ],
      "translation": [
        0.8452000021934509,
        1.6674699783325195,
        0.7514500021934509
      ]
    },
    {
      "mesh": 8,
      "name": "Cube.003_0"
    },
    {
      "mesh": 9,
      "name": "Cube.003_1"
    },
    {
      "children": [
        15,
        16
      ],
      "name": "Cube.003",
      "rotation": [
        0.0,
        0.0,
        1.0,
        0.0
      ],
      "scale": [
        0.5510900020599365,
        0.5510900020599365,
        0.5510900020599365
      ],
      "translation": [
        1.491529941558838,
        -0.4101400077342987,
        0.9141600131988525
      ]
    }
  ],
  "scene": 0,
  "scenes": [
    {
      "nodes": [
        1
      ]
    }
  ]
}
