{
  "accessors": [
    {
      "bufferView": 0,
      "componentType": 5126,
      "count": 21630,
      "max": [
        5.048097610473633,
        4.290074825286865,
        0.11166767030954361
      ],
      "min": [
        -4.669710159301758,
        -13.714900016784668,
        -5.96068000793457
      ],
      "type": "VEC3"
    },
    {
      "bufferView": 1,
      "componentType": 5125,
      "count": 42940,
      "type": "SCALAR"
    },
    {
      "bufferView": 2,
      "componentType": 5126,
      "count": 21630,
      "type": "VEC3"
    },
    {
      "bufferView": 3,
      "componentType": 5126,
      "count": 21630,
      "type": "VEC4"
    },
    {
      "bufferView": 4,
      "componentType": 5126,
      "count": 21630,
      "type": "VEC2"
    },
    {
      "bufferView": 5,
      "componentType": 5126,
      "count": 21630,
      "max": [
        5.048097610473633,
        4.290074825286865,
        0.11166767030954361
      ],
      "min": [
        -4.669710159301758,
        -13.714900016784668,
        -5.96068000793457
      ],
      "type": "VEC3"
    },
    {
      "bufferView": 6,
      "componentType": 5123,
      "count": 360,
      "type": "SCALAR"
    },
    {
      "bufferView": 7,
      "componentType": 5126,
      "count": 21630,
      "type": "VEC3"
    },
    {
      "bufferView": 8,
      "componentType": 5126,
      "count": 21630,
      "type": "VEC4"
    },
    {
      "bufferView": 9,
      "componentType": 5126,
      "count": 21630,
      "type": "VEC2"
    }
  ],
  "asset": {
    "version": "2.0"
  },
  "bufferViews": [
    {
      "buffer": 0,
      "byteLength": 259560,
      "target": 34962
    },
    {
      "buffer": 1,
      "byteLength": 171760,
      "target": 34963
    },
    {
      "buffer": 2,
      "byteLength": 259560,
      "target": 34962
    },
    {
      "buffer": 3,
      "byteLength": 346080,
      "target": 34962
    },
    {
      "buffer": 4,
      "byteLength": 173040,
      "target": 34962
    },
    {
      "buffer": 0,
      "byteLength": 259560,
      "target": 34962
    },
    {
      "buffer": 5,
      "byteLength": 720,
      "target": 34963
    },
    {
      "buffer": 2,
      "byteLength": 259560,
      "target": 34962
    },
    {
      "buffer": 3,
      "byteLength": 346080,
      "target": 34962
    },
    {
      "buffer": 4,
      "byteLength": 173040,
      "target": 34962
    }
  ],
  "buffers": [
    {
      "byteLength": 259560,
      "uri": "data:application/octet-stream;base64,"
    },
    {
      "byteLength": 171760,
      "uri": "data:application/octet-stream;base64,"
    },
    {
      "byteLength": 259560,
      "uri": "data:application/octet-stream;base64,"
    },
    {
      "byteLength": 346080,
      "uri": "data:application/octet-stream;base64,"
    },
    {
      "byteLength": 173040,
      "uri": "data:application/octet-stream;base64,"
    },
    {
      "byteLength": 720,
      "uri": "data:application/octet-stream;base64,"
    }
  ],
  "materials": [
    {
      "doubleSided": true,
      "pbrMetallicRoughness": {
        "baseColorFactor": [
          0.5882350206375122,
          0.5882350206375122,
          0.5882350206375122,
          1.0
        ]
      }
    }
  ],
  "meshes": [
    {
      "name": "defaultMaterial",
      "primitives": [
        {
          "attributes": {
            "NORMAL": 2,
            "POSITION": 0,
            "TANGENT": 3,
            "TEXCOORD_0": 4
          },
          "indices": 1,
          "material": 0,
          "mode": 5
        },
        {
          "attributes": {
            "NORMAL": 7,
            "POSITION": 5,
            "TANGENT": 8,
            "TEXCOORD_0": 9
          },
          "indices": 6,
          "material": 0,
          "mode": 4
        }
      ]
    }
  ],
  "nodes": [
    {
      "mesh": 0,
      "name": "defaultMaterial"
    },
    {
      "children": [
        0
      ],
      "name": "Cylinder004",
      "rotation": [
        -0.7071068518972222,
        0.0,
        0.0,
        0.7071067104758658
      ],
      "scale": [
        10.0,
        10.0,
        10.0
      ],
      "translation": [
        0.0,
        56.269100189208984,
        1.9999999949504854e-06
      ]
    },
    {
      "children": [
        1
      ],
      "name": "Collada visual scene group",
      "rotation": [
        2.1855700111022284e-08,
        0.0,
        0.0,
        0.9999999999999998
      ],
      "scale": [
        1.0,
        1.0,
        1.0
      ],
      "translation": [
        0.0,
        0.0,
        0.0
      ]
    }
  ],
  "scene": 0,
  "scenes": [
    {
      "nodes": [
        2
      ]
    }
  ]
}
